<?xml version="1.0" standalone="no"?>
<svg version="1.0" xmlns="http://www.w3.org/2000/svg"
           viewBox="0 0 455 95">
<g transform="translate(-50,133) scale(0.01,-0.01)" fill="#ffffff">
    <path d="M7890 13150 c-202 -16 -521 -57 -582 -76 -12 -4 -28 -53 -63 -197
-226 -932 -283 -1180 -415 -1787 -437 -2020 -756 -4029 -955 -6010 -36 -356
-85 -895 -85 -930 0 -24 57 -43 215 -70 248 -42 594 -49 822 -14 84 12 127 22
254 55 l36 9 7 92 c14 188 78 836 127 1283 165 1516 400 3063 695 4565 98 501
282 1372 292 1382 4 3 443 -1266 976 -2820 533 -1555 973 -2834 977 -2843 10
-20 160 -53 343 -76 93 -12 214 -17 416 -17 305 0 441 12 631 57 l93 22 936
2827 c514 1555 938 2828 941 2828 3 0 11 -24 17 -52 6 -29 47 -219 91 -423
446 -2080 764 -4150 971 -6320 22 -231 40 -437 40 -457 0 -46 11 -53 128 -78
365 -80 934 -73 1240 15 46 14 52 19 52 43 0 34 -40 460 -80 857 -233 2295
-616 4596 -1140 6845 -119 511 -292 1205 -303 1211 -12 8 -245 45 -372 59
-271 30 -570 37 -805 20 -249 -19 -552 -64 -574 -85 -6 -6 -425 -1297 -931
-2868 -506 -1571 -922 -2857 -925 -2857 -3 0 -276 820 -608 1823 -1313 3965
-1293 3906 -1310 3911 -36 11 -269 47 -400 62 -163 18 -591 26 -752 14z"/>
    <path d="M26035 12923 c-82 -7 -302 -34 -362 -44 l-63 -11 0 -1188 0 -1188
-107 -20 c-60 -11 -272 -51 -473 -88 -201 -37 -369 -71 -374 -75 -4 -4 -15
-56 -23 -116 -25 -186 -18 -582 13 -735 l6 -28 479 0 479 0 0 -1602 c0 -1034
4 -1644 11 -1718 30 -338 104 -618 233 -885 175 -362 421 -636 766 -850 505
-313 1214 -418 1960 -290 221 37 542 130 662 191 l49 25 -5 67 c-3 37 -8 108
-11 157 -7 115 -29 245 -61 365 -42 157 -149 360 -191 360 -9 0 -89 -16 -178
-35 -270 -58 -361 -69 -565 -69 -407 0 -692 104 -916 336 -187 193 -289 417
-351 774 -16 90 -17 233 -20 1637 l-4 1537 984 0 984 0 16 63 c35 134 41 194
41 452 0 271 -11 377 -52 510 l-18 60 -977 3 -977 2 0 1174 0 1174 -22 5 c-47
12 -237 37 -353 46 -110 10 -485 12 -580 4z"/>
    <path d="M30840 12924 c-89 -7 -291 -34 -337 -46 l-43 -10 0 -4368 0 -4368 48
-11 c317 -68 1007 -68 1276 0 l45 11 4 1762 c4 1893 1 1784 53 2026 64 300
186 582 354 822 73 105 302 340 397 408 219 157 454 257 716 307 70 13 146 17
312 18 190 0 236 -3 333 -23 203 -41 374 -109 517 -205 78 -53 214 -184 276
-269 140 -188 232 -458 258 -754 7 -78 11 -808 11 -2106 l0 -1986 50 -11 c170
-37 297 -45 650 -46 354 0 485 10 623 46 l37 10 -3 2137 c-3 2343 1 2182 -62
2496 -172 854 -680 1459 -1438 1711 -597 198 -1317 191 -1896 -21 -136 -50
-378 -171 -501 -252 -243 -159 -457 -360 -662 -622 l-27 -35 -1 1661 0 1662
-46 11 c-135 34 -244 43 -564 46 -179 1 -350 1 -380 -1z"/>
    <path d="M20215 10633 c-432 -35 -809 -126 -1163 -279 -530 -228 -982 -604
-1297 -1079 -441 -662 -628 -1547 -519 -2448 77 -637 311 -1215 680 -1677 87
-109 325 -347 434 -434 289 -230 649 -422 1015 -539 569 -183 1270 -222 1890
-106 1349 251 2287 1209 2519 2571 45 259 51 347 51 688 0 338 -9 453 -56 715
-138 768 -522 1438 -1080 1886 -496 399 -1079 626 -1779 694 -130 13 -577 18
-695 8z m603 -1159 c304 -40 605 -158 827 -324 103 -78 251 -223 330 -325 227
-291 373 -656 437 -1086 29 -202 32 -603 5 -799 -105 -749 -466 -1315 -1017
-1589 -443 -221 -1015 -259 -1518 -100 -123 39 -334 141 -434 211 -481 334
-773 889 -839 1591 -17 181 -7 532 21 711 90 594 349 1065 755 1377 367 282
890 403 1433 333z"/>
    <path d="M40730 10629 c-587 -56 -1136 -266 -1593 -608 -139 -104 -162 -124
-316 -275 -433 -425 -736 -992 -870 -1626 -52 -248 -71 -415 -78 -700 -30
-1221 428 -2229 1287 -2831 157 -110 398 -243 570 -314 637 -262 1412 -337
2160 -209 586 100 1132 338 1550 675 146 118 143 113 130 194 -6 38 -20 96
-31 129 -67 198 -268 493 -411 603 -96 75 -86 76 -260 -40 -441 -294 -850
-436 -1377 -477 -1013 -78 -1746 347 -2085 1208 -64 163 -131 429 -152 605
l-6 57 2300 0 2299 0 6 48 c32 248 33 836 3 1082 -127 1015 -618 1778 -1403
2178 -329 167 -681 266 -1073 302 -132 11 -524 11 -650 -1z m618 -1133 c114
-21 191 -43 298 -86 497 -198 839 -682 929 -1312 8 -57 15 -120 15 -140 l0
-38 -1645 0 -1646 0 7 38 c14 77 76 281 120 392 265 670 768 1079 1424 1160
104 12 398 4 498 -14z"/>
    <path d="M48795 10633 c-231 -18 -489 -67 -708 -135 -556 -171 -1052 -519
-1377 -965 -25 -34 -48 -62 -52 -62 -5 -1 -8 221 -8 493 l0 494 -62 11 c-188
32 -236 35 -533 35 -297 0 -481 -13 -591 -43 l-29 -7 -3 -3161 -2 -3161 50
-11 c170 -37 297 -45 650 -46 357 0 455 7 612 42 l68 14 3 1757 c4 1903 0
1769 56 1989 72 279 209 548 392 768 307 367 712 587 1189 645 46 5 198 10
337 10 251 0 253 0 267 23 37 57 80 286 97 522 17 237 -11 645 -52 763 l-11
32 -126 -2 c-70 -1 -145 -3 -167 -5z"/>
    <path d="M49417 5599 c-197 -27 -400 -142 -512 -291 -159 -212 -201 -460 -120
-715 50 -157 185 -326 330 -411 270 -158 624 -147 872 27 163 115 265 269 308
465 24 108 17 303 -15 396 -70 206 -198 356 -384 449 -140 71 -324 101 -479
80z m252 -164 c368 -87 557 -525 381 -883 -117 -236 -376 -362 -635 -307 -392
83 -588 511 -404 884 73 148 220 267 375 305 78 19 204 19 283 1z"/>
    <path d="M49327 5220 c-38 -5 -75 -11 -83 -14 -12 -4 -14 -67 -14 -386 l0
-380 90 0 90 0 0 155 0 155 63 0 c76 0 140 -27 160 -67 8 -15 22 -62 32 -103
10 -41 24 -90 31 -107 l13 -33 97 0 c88 0 95 2 89 18 -4 9 -21 69 -36 132 -32
127 -62 180 -116 212 l-35 21 44 23 c97 50 133 127 104 226 -32 111 -111 149
-321 154 -77 1 -171 -1 -208 -6z m283 -138 c21 -10 42 -32 53 -54 18 -37 18
-39 0 -75 -25 -52 -70 -72 -169 -76 l-79 -2 -3 99 c-1 55 0 106 2 113 8 21
152 17 196 -5z"/>
</g>
</svg>
