<svg width="23" height="23" viewBox="0 0 23 23" fill="none" xmlns="http://www.w3.org/2000/svg">
<path d="M12.1388 11.1592L11.4315 11.8665L12.139 12.5736L16.2234 16.6555C16.2234 16.6555 16.2234 16.6555 16.2234 16.6555C16.2296 16.6617 16.2331 16.6701 16.2331 16.6788C16.2331 16.6876 16.2296 16.696 16.2234 16.7022C16.2172 16.7084 16.2088 16.7119 16.2 16.7119C16.1913 16.7119 16.1829 16.7084 16.1767 16.7022L12.0946 12.6202L11.3875 11.913L10.6804 12.6202L6.59839 16.7022C6.5922 16.7084 6.58379 16.7119 6.57503 16.7119C6.56627 16.7119 6.55787 16.7084 6.55167 16.7022C6.54547 16.696 6.54199 16.6876 6.54199 16.6788C6.54199 16.6701 6.54547 16.6617 6.55167 16.6555L10.6337 12.5734L11.3408 11.8663L10.6337 11.1592L6.55167 7.07718C6.54547 7.07099 6.54199 7.06258 6.54199 7.05382C6.54199 7.04506 6.54547 7.03666 6.55167 7.03046C6.55787 7.02426 6.56627 7.02078 6.57503 7.02078C6.58379 7.02078 6.5922 7.02426 6.59839 7.03046L10.6804 11.1125L11.3875 11.8196L12.0946 11.1125L16.176 7.03108C16.1761 7.03105 16.1761 7.03102 16.1761 7.03099C16.1822 7.02503 16.1903 7.02169 16.1988 7.02169C16.2073 7.0217 16.2155 7.02509 16.2215 7.03112C16.2275 7.03715 16.2309 7.04533 16.2309 7.05385C16.2309 7.06237 16.2275 7.07054 16.2214 7.07656L16.2208 7.07718L12.1388 11.1592Z" stroke="#1E1E1E" stroke-width="2"/>
</svg>
