<svg width="16" height="16" viewBox="0 0 16 16" fill="none" xmlns="http://www.w3.org/2000/svg">
<g clip-path="url(#clip0_26_7810)">
<path d="M14.2158 4.789H1.55957C1.5057 4.789 1.45403 4.7676 1.41594 4.72951C1.37785 4.69141 1.35645 4.63975 1.35645 4.58588C1.35645 4.532 1.37785 4.48034 1.41594 4.44225C1.45403 4.40415 1.5057 4.38275 1.55957 4.38275H14.2158C14.2697 4.38275 14.3214 4.40415 14.3594 4.44225C14.3975 4.48034 14.4189 4.532 14.4189 4.58588C14.4189 4.63975 14.3975 4.69141 14.3594 4.72951C14.3214 4.7676 14.2697 4.789 14.2158 4.789Z" fill="white" stroke="white"/>
<path d="M11.8721 8.0705H3.90332C3.84945 8.0705 3.79778 8.04909 3.75969 8.011C3.7216 7.97291 3.7002 7.92124 3.7002 7.86737C3.7002 7.8135 3.7216 7.76183 3.75969 7.72374C3.79778 7.68565 3.84945 7.66425 3.90332 7.66425H11.8721C11.9259 7.66425 11.9776 7.68565 12.0157 7.72374C12.0538 7.76183 12.0752 7.8135 12.0752 7.86737C12.0752 7.92124 12.0538 7.97291 12.0157 8.011C11.9776 8.04909 11.9259 8.0705 11.8721 8.0705Z" fill="white" stroke="white"/>
<path d="M9.05957 11.3517H6.71582C6.66195 11.3517 6.61028 11.3303 6.57219 11.2922C6.5341 11.2541 6.5127 11.2024 6.5127 11.1486C6.5127 11.0947 6.5341 11.043 6.57219 11.0049C6.61028 10.9668 6.66195 10.9454 6.71582 10.9454H9.05957C9.11344 10.9454 9.16511 10.9668 9.2032 11.0049L9.55675 10.6514L9.2032 11.0049C9.2413 11.043 9.2627 11.0947 9.2627 11.1486C9.2627 11.2024 9.2413 11.2541 9.2032 11.2922C9.16511 11.3303 9.11344 11.3517 9.05957 11.3517Z" fill="white" stroke="white"/>
</g>
<defs>
<clipPath id="clip0_26_7810">
<rect width="15" height="15" fill="white" transform="translate(0.387695 0.367065)"/>
</clipPath>
</defs>
</svg>
