<svg width="23" height="23" viewBox="0 0 23 23" fill="none" xmlns="http://www.w3.org/2000/svg">
<path d="M4.57031 21.7974H3.16406C2.88434 21.7974 2.61608 21.6863 2.41829 21.4885C2.22049 21.2907 2.10938 21.0225 2.10938 20.7427V14.4146C2.10938 14.1349 2.22049 13.8666 2.41829 13.6688C2.61608 13.471 2.88434 13.3599 3.16406 13.3599H4.57031C4.85003 13.3599 5.1183 13.471 5.31609 13.6688C5.51388 13.8666 5.625 14.1349 5.625 14.4146V20.7427C5.625 21.0225 5.51388 21.2907 5.31609 21.4885C5.1183 21.6863 4.85003 21.7974 4.57031 21.7974Z" fill="white"/>
<path d="M14.4141 21.7962H13.0078C12.7281 21.7962 12.4598 21.6851 12.262 21.4873C12.0642 21.2895 11.9531 21.0212 11.9531 20.7415V10.1946C11.9531 9.91492 12.0642 9.64666 12.262 9.44886C12.4598 9.25107 12.7281 9.13995 13.0078 9.13995H14.4141C14.6938 9.13995 14.962 9.25107 15.1598 9.44886C15.3576 9.64666 15.4687 9.91492 15.4687 10.1946V20.7415C15.4687 21.0212 15.3576 21.2895 15.1598 21.4873C14.962 21.6851 14.6938 21.7962 14.4141 21.7962Z" fill="white"/>
<path d="M19.3359 21.7967H17.9297C17.65 21.7967 17.3817 21.6856 17.1839 21.4878C16.9861 21.29 16.875 21.0218 16.875 20.7421V5.27332C16.875 4.99359 16.9861 4.72533 17.1839 4.52754C17.3817 4.32975 17.65 4.21863 17.9297 4.21863H19.3359C19.6157 4.21863 19.8839 4.32975 20.0817 4.52754C20.2795 4.72533 20.3906 4.99359 20.3906 5.27332V20.7421C20.3906 21.0218 20.2795 21.29 20.0817 21.4878C19.8839 21.6856 19.6157 21.7967 19.3359 21.7967Z" fill="white"/>
<path d="M9.49219 21.7965H8.08594C7.80622 21.7965 7.53795 21.6854 7.34016 21.4876C7.14237 21.2898 7.03125 21.0215 7.03125 20.7418V1.75745C7.03125 1.47773 7.14237 1.20946 7.34016 1.01167C7.53795 0.813877 7.80622 0.702759 8.08594 0.702759H9.49219C9.77191 0.702759 10.0402 0.813877 10.238 1.01167C10.4358 1.20946 10.5469 1.47773 10.5469 1.75745V20.7418C10.5469 21.0215 10.4358 21.2898 10.238 21.4876C10.0402 21.6854 9.77191 21.7965 9.49219 21.7965Z" fill="white"/>
</svg>
