<svg width="12" height="12" viewBox="0 0 12 12" fill="none" xmlns="http://www.w3.org/2000/svg">
<path d="M7.79627 1.51341C7.34018 1.02099 6.70315 0.749817 6.00002 0.749817C5.29315 0.749817 4.65401 1.01935 4.20002 1.50872C3.74112 2.00349 3.51752 2.67591 3.57002 3.402C3.67409 4.8345 4.76416 5.99981 6.00002 5.99981C7.23588 5.99981 8.32408 4.83474 8.42979 3.40247C8.48299 2.68294 8.25799 2.01193 7.79627 1.51341Z" fill="white"/>
<path d="M10.1251 11.2493H1.87513C1.76715 11.2507 1.66021 11.228 1.56209 11.1829C1.46398 11.1377 1.37716 11.0713 1.30795 10.9884C1.1556 10.8063 1.0942 10.5576 1.13967 10.3061C1.33748 9.2088 1.95482 8.287 2.92513 7.63989C3.78716 7.06544 4.87912 6.74927 6.00013 6.74927C7.12115 6.74927 8.2131 7.06567 9.07513 7.63989C10.0454 8.28677 10.6628 9.20856 10.8606 10.3059C10.9061 10.5574 10.8447 10.8061 10.6923 10.9882C10.6231 11.0711 10.5363 11.1376 10.4382 11.1828C10.3401 11.2279 10.2331 11.2506 10.1251 11.2493Z" fill="white"/>
</svg>
