<svg width="23" height="23" viewBox="0 0 23 23" fill="none" xmlns="http://www.w3.org/2000/svg">
<g clip-path="url(#clip0_71_12286)">
<path d="M21.5937 22.0467H2.60937C2.23641 22.0467 1.87873 21.8986 1.61501 21.6348C1.35128 21.3711 1.20313 21.0134 1.20312 20.6405V1.6561C1.20312 1.46962 1.2772 1.29078 1.40907 1.15892C1.54093 1.02706 1.71977 0.95298 1.90625 0.95298C2.09273 0.95298 2.27157 1.02706 2.40343 1.15892C2.5353 1.29078 2.60937 1.46962 2.60937 1.6561V20.6405H21.5937C21.7802 20.6405 21.9591 20.7146 22.0909 20.8464C22.2228 20.9783 22.2969 21.1571 22.2969 21.3436C22.2969 21.5301 22.2228 21.7089 22.0909 21.8408C21.9591 21.9726 21.7802 22.0467 21.5937 22.0467Z" fill="white"/>
<path d="M7.35547 19.2342H5.59766C5.17807 19.2342 4.77568 19.0675 4.47899 18.7708C4.1823 18.4741 4.01563 18.0717 4.01562 17.6522V10.9725C4.01563 10.5529 4.1823 10.1505 4.47899 9.85381C4.77568 9.55712 5.17807 9.39044 5.59766 9.39044H7.35547C7.77505 9.39044 8.17744 9.55712 8.47413 9.85381C8.77082 10.1505 8.9375 10.5529 8.9375 10.9725V17.6522C8.9375 18.0717 8.77082 18.4741 8.47413 18.7708C8.17744 19.0675 7.77505 19.2342 7.35547 19.2342Z" fill="white"/>
<path d="M13.6836 19.234H11.9258C11.5062 19.234 11.1038 19.0674 10.8071 18.7707C10.5104 18.474 10.3438 18.0716 10.3438 17.652V8.86295C10.3438 8.44336 10.5104 8.04097 10.8071 7.74428C11.1038 7.44759 11.5062 7.28091 11.9258 7.28091H13.6836C14.1032 7.28091 14.5056 7.44759 14.8023 7.74428C15.0989 8.04097 15.2656 8.44336 15.2656 8.86295V17.652C15.2656 18.0716 15.0989 18.474 14.8023 18.7707C14.5056 19.0674 14.1032 19.234 13.6836 19.234Z" fill="white"/>
<path d="M19.9961 19.2347H18.2383C17.8187 19.2347 17.4163 19.0681 17.1196 18.7714C16.8229 18.4747 16.6562 18.0723 16.6562 17.6527V6.05115C16.6562 5.63157 16.8229 5.22917 17.1196 4.93248C17.4163 4.63579 17.8187 4.46912 18.2383 4.46912H19.9961C20.4157 4.46912 20.8181 4.63579 21.1148 4.93248C21.4114 5.22917 21.5781 5.63157 21.5781 6.05115V17.6527C21.5781 18.0723 21.4114 18.4747 21.1148 18.7714C20.8181 19.0681 20.4157 19.2347 19.9961 19.2347Z" fill="white"/>
</g>
<defs>
<clipPath id="clip0_71_12286">
<rect width="22.5" height="22.5" fill="white" transform="translate(0.5 0.25)"/>
</clipPath>
</defs>
</svg>
