<?xml version="1.0" encoding="utf-8"?>
<!-- Generator: Adobe Illustrator 21.0.0, SVG Export Plug-In . SVG Version: 6.00 Build 0)  -->
<svg version="1.1" id="Layer_1" xmlns="http://www.w3.org/2000/svg" xmlns:xlink="http://www.w3.org/1999/xlink" x="0px" y="0px"
	 viewBox="0 0 512 512" style="enable-background:new 0 0 512 512;" xml:space="preserve">
<path d="M506.2,478.4L376.9,349.1c4.5-5.4,8.8-11.1,12.7-17c23-34,36.4-75.1,36.4-119.1c0-29.4-6-57.4-16.8-82.9
	C393,91.8,366,59.4,332,36.4C298.2,13.4,257.1,0,213,0c-29.4,0-57.4,6-82.9,16.7C91.8,32.9,59.4,59.9,36.4,93.9S0,169,0,213
	c0,29.4,6,57.4,16.7,82.9c16.2,38.3,43.2,70.7,77.2,93.7S169,426,213,426c29.4,0,57.4-6,82.9-16.7c19.4-8.2,37.3-19.2,53.2-32.4
	l129.3,129.3c7.7,7.7,20.2,7.7,27.8,0C513.9,498.5,513.9,486,506.2,478.4z M310.1,356.9c-13.9,9.4-29.1,16.8-45.4,21.8
	c-16.3,5.1-33.6,7.8-51.6,7.8c-24,0-46.8-4.9-67.6-13.6c-31.1-13.2-57.7-35.2-76.4-62.9c-9.4-13.9-16.8-29.1-21.8-45.4
	c-5.1-16.3-7.8-33.6-7.8-51.6c0-24,4.9-46.8,13.6-67.6C66.2,114.3,88.2,87.8,116,69c13.9-9.4,29.1-16.8,45.4-21.8
	c16.3-5.1,33.6-7.8,51.6-7.8c24,0,46.8,4.9,67.6,13.6c31.1,13.2,57.7,35.2,76.4,62.9c9.4,13.9,16.8,29.1,21.8,45.4
	c5.1,16.3,7.8,33.6,7.8,51.6c0,24-4.9,46.8-13.6,67.6C359.8,311.6,337.8,338.2,310.1,356.9z"  fill="white"/>
</svg>
